<svg preserveAspectRatio="xMidYMid meet" data-bbox="46.07 23.3 108.86 160.005" viewBox="46.07 23.3 108.86 160.005" xmlns="http://www.w3.org/2000/svg" data-type="color" role="presentation" aria-hidden="true" aria-label=""><defs><style>#comp-m1wgixud12 svg [data-color="1"] {fill: #403F2B;}</style></defs>
    <g>
        <path d="M130.41 138.67c24.67-10.04 15.7-31.58-8.8-21.14 10.34-24.53-11.21-33.41-21.16-8.72-10.04-24.67-31.58-15.7-21.14 8.8-24.53-10.34-33.41 11.21-8.72 21.16-24.67 10.04-15.7 31.58 8.8 21.14-10.34 24.53 11.21 33.41 21.16 8.72 10.04 24.67 31.58 15.7 21.14-8.8 24.53 10.34 33.41-11.22 8.72-21.16z" fill="#1d1d1b" data-color="1"></path>
        <path d="M99.66 23.57c-1.67-.17-3.37-.27-5.09-.27-26.79 0-48.5 21.65-48.5 48.35 0 1.71.09 3.41.27 5.07 14.05 1.47 28.62-3.15 39.39-13.89s15.41-25.25 13.93-39.26z" fill="#1d1d1b" data-color="1"></path>
        <path d="M101.34 23.57c1.67-.17 3.37-.27 5.09-.27 26.79 0 48.5 21.65 48.5 48.35 0 1.71-.09 3.41-.27 5.07-14.05 1.47-28.62-3.15-39.39-13.89s-15.41-25.25-13.93-39.26z" fill="#1d1d1b" data-color="1"></path>
        <path fill="#1d1d1b" d="M99.5 136.562v-113h2v113h-2z" data-color="1"></path>
    </g>
</svg>