<svg preserveAspectRatio="xMidYMid meet" data-bbox="45.57 23.3 108.86 160.01" viewBox="45.57 23.3 108.86 160.01" xmlns="http://www.w3.org/2000/svg" data-type="color" role="presentation" aria-hidden="true" aria-label=""><defs><style>#comp-m1wgixuj svg [data-color="1"] {fill: #403F2B;}</style></defs>
    <g>
        <path d="M138.88 73.3C145.63 68.23 150 60.18 150 51.12c0-15.36-12.53-27.81-27.99-27.81A27.98 27.98 0 0 0 100 33.96C94.87 27.47 86.92 23.3 77.99 23.3 62.53 23.3 50 35.76 50 51.12c0 9.06 4.36 17.11 11.11 22.19C54.36 78.38 50 86.43 50 95.49c0 15.36 12.53 27.81 27.99 27.81 8.94 0 16.89-4.17 22.01-10.65a27.995 27.995 0 0 0 22.01 10.65c15.46 0 27.99-12.45 27.99-27.81 0-9.06-4.37-17.11-11.12-22.19z" fill="#1d1d1b" data-color="1"></path>
        <path d="M100.84 183.04c1.67.17 3.37.27 5.09.27 26.79 0 48.5-21.65 48.5-48.35 0-1.71-.09-3.41-.27-5.07-14.05-1.47-28.62 3.15-39.39 13.89s-15.41 25.25-13.93 39.26z" fill="#1d1d1b" data-color="1"></path>
        <path d="M99.16 183.04c-1.67.17-3.37.27-5.09.27-26.79 0-48.5-21.65-48.5-48.35 0-1.71.09-3.41.27-5.07 14.05-1.47 28.62 3.15 39.39 13.89s15.41 25.25 13.93 39.26z" fill="#1d1d1b" data-color="1"></path>
        <path fill="#1d1d1b" d="M101 70v113h-2V70h2z" data-color="1"></path>
    </g>
</svg>