<svg preserveAspectRatio="xMidYMid meet" data-bbox="45.67 21.29 108.66 158.4" viewBox="45.67 21.29 108.66 158.4" xmlns="http://www.w3.org/2000/svg" data-type="color" role="presentation" aria-hidden="true" aria-label=""><defs><style>#comp-m1wgixu821 svg [data-color="1"] {fill: #403F2B;}</style></defs>
    <g>
        <path d="M100 168.28c5.27 6.93 13.61 11.41 23.01 11.41 30.5 0 28.84-64.75 28.84-73.92 0-15.87-12.91-28.73-28.84-28.73-9.4 0-17.74 4.48-23.01 11.41-5.27-6.93-13.61-11.41-23.01-11.41-15.93 0-28.84 12.86-28.84 28.73 0 9.17-1.65 73.92 28.84 73.92 9.4 0 17.74-4.48 23.01-11.41z" fill="#1d1d1b" data-color="1"></path>
        <path d="M100.67 21.29c.57 28.86 24.37 52.09 53.66 52.09-.57-28.86-24.37-52.09-53.66-52.09z" fill="#1d1d1b" data-color="1"></path>
        <path d="M45.67 73.38c.57-28.86 24.37-52.09 53.66-52.09-.57 28.87-24.37 52.09-53.66 52.09z" fill="#1d1d1b" data-color="1"></path>
        <path fill="#1d1d1b" d="M101 21.29v113h-2v-113h2z" data-color="1"></path>
    </g>
</svg>